<svg xmlns="http://www.w3.org/2000/svg" viewBox="0 0 123.51 87.49"><defs><style>.cls-1{fill:#b7b7b7;}</style></defs><title>Asset 14</title><g id="Layer_2" data-name="Layer 2"><g id="intro"><path class="cls-1" d="M76.47,57.55a43.07,43.07,0,0,1-12.75,17,35,35,0,0,1-18.38,7.41,40.9,40.9,0,0,1-20.9-3.6A40.05,40.05,0,0,1,11.18,69,40,40,0,0,1,0,40.3,40.68,40.68,0,0,1,12.79,11.18,40,40,0,0,1,41.47,0,40.27,40.27,0,0,1,57.33,3.43,38.69,38.69,0,0,1,78.11,24.26l-14.45,5.3A22.55,22.55,0,0,0,51.28,17.23a24.44,24.44,0,0,0-13-1.94A25.87,25.87,0,0,0,17.69,30.7a25.88,25.88,0,0,0,2.57,25.57A24.54,24.54,0,0,0,30.5,64.54a27,27,0,0,0,8.3,2.25,21.53,21.53,0,0,0,7.14-.37,23.14,23.14,0,0,0,5.78-2.25A20.1,20.1,0,0,0,56.08,61a21.18,21.18,0,0,0,2.76-3.3L37.59,48.4l5.65-12.88L78.6,51.05A35.37,35.37,0,0,1,76.47,57.55Zm47,13.22L118.8,81.5l-10.68-4.69-4.69,10.68L92.7,82.78,97.39,72.1,86.71,67.41l4.71-10.73,10.68,4.69,4.69-10.68,10.73,4.72-4.69,10.67Z"/></g></g></svg>