<svg xmlns="http://www.w3.org/2000/svg" viewBox="0 0 96.85 96.85"><defs><style>.cls-1{fill:#b7b7b7;}</style></defs><title>Asset 13</title><g id="Layer_2" data-name="Layer 2"><g id="intro"><path class="cls-1" d="M87.66,65.66q-5.13,11.7-7.36,16.08Q75.11,92.15,66.74,95.41T47.5,94.52q-4.61-1.71-16.31-6.86T15.11,80.3Q4.7,75.11,1.44,66.74T2.33,47.5Q4,42.9,9.19,31.19t7.37-16.08Q21.74,4.7,30.12,1.44t19.23.89Q54,4,65.66,9.19t16.08,7.37q10.41,5.18,13.67,13.56t-.89,19.23Q92.81,54,87.66,65.66ZM66.48,17.93l-3.92-1.69-3.9-1.75c-2.36-1.05-4.15-1.84-5.39-2.36s-2.9-1.2-5-2a44,44,0,0,0-5.49-1.79,21.79,21.79,0,0,0-4.07-.67,14.74,14.74,0,0,0-5.8,1A14.37,14.37,0,0,0,28,11.84a21.8,21.8,0,0,0-2.55,3.24,42.47,42.47,0,0,0-2.83,5q-1.48,3-2.32,4.87c-.55,1.22-1.34,3-2.36,5.39l-1.69,3.92-1.75,3.9c-1.05,2.36-1.84,4.15-2.36,5.39s-1.2,2.9-2,5a41.13,41.13,0,0,0-1.8,5.49,20.89,20.89,0,0,0-.66,4.07,14.56,14.56,0,0,0,1,5.8,14.37,14.37,0,0,0,3.2,4.93,21.8,21.8,0,0,0,3.24,2.55,42.47,42.47,0,0,0,5,2.83q3,1.49,4.87,2.32c1.22.55,3,1.34,5.39,2.36l3.92,1.69,3.9,1.75q3.53,1.58,5.39,2.36c1.23.52,2.9,1.2,5,2a46,46,0,0,0,5.49,1.8,21.58,21.58,0,0,0,4.07.65A14.5,14.5,0,0,0,68.86,85a21.8,21.8,0,0,0,2.55-3.24,42.47,42.47,0,0,0,2.83-5q1.49-3,2.32-4.87c.55-1.22,1.34-3,2.36-5.39s1.59-3.68,1.69-3.92l1.75-3.9q1.58-3.52,2.36-5.39t2-5a44.26,44.26,0,0,0,1.8-5.49,22.54,22.54,0,0,0,.66-4.07,14.74,14.74,0,0,0-1-5.8A14.37,14.37,0,0,0,85,28a21.8,21.8,0,0,0-3.24-2.55,42.47,42.47,0,0,0-5-2.83q-3-1.48-4.87-2.31C70.65,19.74,68.86,19,66.48,17.93Zm2.46,22.5a21.21,21.21,0,0,1-.38,16.84A21.24,21.24,0,0,1,56.42,68.94a21.21,21.21,0,0,1-16.84-.38A21.24,21.24,0,0,1,27.91,56.42a21.21,21.21,0,0,1,.38-16.84A21.24,21.24,0,0,1,40.43,27.91a21.21,21.21,0,0,1,16.84.38A21.24,21.24,0,0,1,68.94,40.43ZM53.61,61.74a14.31,14.31,0,0,0,8.13-18.5,14.27,14.27,0,0,0-18.5-8.12,14.25,14.25,0,0,0-8.12,18.49,14.29,14.29,0,0,0,18.49,8.13ZM83.35,34.82a5.13,5.13,0,0,1-2.91,6.64,5.13,5.13,0,1,1-3.73-9.56,5.11,5.11,0,0,1,6.64,2.92Z"/></g></g></svg>